<svg xmlns="http://www.w3.org/2000/svg" id="svg162" version="1.1" viewBox="0 0 503.3 503.3">
  <defs id="defs4"/>
  <path id="path10" fill="#fff" stroke="none" d="M492.6 188c-5.5-13.9-13-23.3-21.4-27.6 2.8-9 1.4-20.8-4.4-34.4-7.2-17-20.5-35.6-37.3-52.4-26.7-26.7-56.2-43.2-77.2-43.2a31.7 31.7 0 00-10 1.5c-4.3-8.4-13.7-15.7-27.4-21.2A175 175 0 00251.4 0c-23.8 0-46.3 3.8-63.4 10.7-13.9 5.6-23.3 13-27.6 21.4a32.2 32.2 0 00-9.7-1.4c-21 0-50.5 16.5-77.1 43.2a175.3 175.3 0 00-37.3 52.4c-6 13.8-7.3 25.7-4.4 34.7-8.4 4.4-15.7 13.8-21.2 27.5C3.8 205.5 0 228 0 251.9a175 175 0 0010.7 63.5c5.6 13.8 13 23.3 21.4 27.6-2.8 9-1.3 20.7 4.4 34.3 7.2 17 20.5 35.6 37.3 52.5C100.5 456.4 130 473 151 473a32 32 0 0010-1.5c4.3 8.3 13.7 15.6 27.4 21.2a175 175 0 0063.5 10.7c23.8 0 46.3-3.8 63.4-10.7 13.8-5.6 23.3-13 27.6-21.4a32.3 32.3 0 009.7 1.4c21 0 50.5-16.5 77.1-43.2a175 175 0 0037.3-52.4c5.9-13.8 7.3-25.7 4.4-34.7 8.3-4.3 15.6-13.7 21.2-27.4a175 175 0 0010.7-63.5c0-23.8-3.7-46.4-10.6-63.5zm-32.2 149.2a14.7 14.7 0 01-2-.2 14.5 14.5 0 011.7 1.5c6.6 6.7 6.5 19.2-.4 35.4a166.4 166.4 0 01-35.6 50c-24.8 24.7-52.9 40.7-71.5 40.7-6 0-10.6-1.6-13.8-4.8a17 17 0 01-1.4-1.6 15.7 15.7 0 01.2 2.2c0 19.3-38.4 35-85.7 35-47.3 0-85.7-15.7-85.7-35a14.5 14.5 0 01.1-2 15.3 15.3 0 01-1.4 1.7A18.8 18.8 0 01151 465c-18.7 0-46.7-16-71.6-40.9-33.4-33.4-49.5-71.7-36-85.3a13.7 13.7 0 011.5-1.3 15.2 15.2 0 01-2 .2c-19.3 0-35-38.5-35-85.8s15.7-85.7 35-85.7a14.6 14.6 0 012 .1 14.6 14.6 0 01-1.7-1.4c-6.7-6.7-6.6-19.3.3-35.5 6.8-16 19.5-33.7 35.6-49.9 24.8-24.8 52.9-40.8 71.5-40.8 6 0 10.6 1.7 13.8 4.9a16 16 0 011.4 1.6 14.7 14.7 0 01-.2-2.3c0-19.2 38.5-34.9 85.7-34.9 22.9 0 44.4 3.6 60.5 10.1 16.2 6.6 25.3 15.4 25.3 24.8a14.7 14.7 0 01-.2 2.1 14.6 14.6 0 011.5-1.8c3.2-3.2 7.9-4.9 13.8-4.9 18.6 0 46.7 16 71.5 40.9a166.9 166.9 0 0135.6 50c6.8 16 7 28.7.3 35.3a14.8 14.8 0 01-1.6 1.4 14.4 14.4 0 012.3-.2c9.4 0 18.2 9 24.8 25.3a167 167 0 0110.1 60.4c0 47.3-15.6 85.8-34.9 85.8z" class="cls-2"/>
  <path id="path12" fill="#fff" stroke="none" d="M307.5 177.8l-1.8 8.6v.1l7.5-4.7c-3 3.6-5.5 24 11.6 22.5 17-1.5 8.7-21.6 8.7-21.6a48.2 48.2 0 0011.6 5.8c6 1.9 8.7-3.6 9.6-5 1-1.4 3.1-1.8 6.2-2.5s7.3-6 6.5-10c-.8-4-5.2-5.5-14.9-8.8-9.7-3.2-20.4.6-27.4 3.1 0 0-3-1.5 1-4a3 3 0 002-2.8 3 3 0 000-.8c1.8-1.8 3.6-2.7 9.2-4.6a18.1 18.1 0 00-10 3.5 2.7 2.7 0 00-.4-.4 3.3 3.3 0 00-.6-.4 18.2 18.2 0 00-.2-10.5c.1 6 0 7.9-1 10.3a2.8 2.8 0 00-.8.2 3 3 0 00-2 2.8c-1 4.7-3.4 2.4-3.4 2.4 0-7.5-.2-18.8-6.7-26.8-6.4-8-9.3-11.6-13.3-11-4 .7-7.6 6.5-7.2 9.6.4 3.2.8 5.3-.1 6.7-1 1.4-5.2 5.8-1.4 10.7a48.1 48.1 0 009.5 8.9s-21.7-.8-17.2 15.7 22.6 7.1 25 3z" class="cls-2"/>
  <path id="path14" fill="#fff" stroke="none" d="M149.5 272.3V285l5.3.7a18.8 18.8 0 01-1.8-9.5 14.2 14.2 0 013-7 19 19 0 0116-27 7.5 7.5 0 00-7-5.6 7.5 7.5 0 00-14.9-.6 8.4 8.4 0 10-15.2 7 8.3 8.3 0 00-3 16 7.5 7.5 0 00-.6 2.7 7.4 7.4 0 0011 6.5v.2zm-3.3-11.2a11.3 11.3 0 002.8 1l.4 6.4s-4-.7-4.8-2.4a7.4 7.4 0 001.6-4.5v-.5zm-8.2 3.2a4.3 4.3 0 01-4.3-4.3 4.4 4.4 0 01.1-1.1 5.8 5.8 0 117.3-2 4.3 4.3 0 01-3.1 7.4z" class="cls-2"/>
  <path id="path16" fill="#fff" stroke="none" d="M148.3 288.7s18.3 20.2 29.4 36.3a131.3 131.3 0 0015.7 9.3l-1.4-2.6c-12.7-22.4-43.7-43-43.7-43z" class="cls-2"/>
  <path id="path18" fill="#fff" stroke="none" d="M214.3 283.7s47.5 42 59.2 62.5a129.9 129.9 0 0013.9-3.1c-.6-1-1.2-1.9-2-2.8-21.1-30-71-56.6-71-56.6z" class="cls-2"/>
  <path id="path20" fill="#fff" stroke="none" d="M328 316.4c-29.3-27-86.3-42.4-86.3-42.4s67.4 37.2 79.5 54a131.4 131.4 0 0010.8-7.7 89.6 89.6 0 00-4-4z" class="cls-2"/>
  <path id="path22" fill="#fff" stroke="none" d="M223 276s61 38 74.9 63.6a130 130 0 0014.7-6.7l-5.4-6C278.8 297.7 223 276 223 276z" class="cls-2"/>
  <path id="path24" fill="#fff" stroke="none" d="M293.3 279H283c6.3 4 49 26.7 56 32.7a11.2 11.2 0 001.7 1.2q4-3.8 7.7-7.9a40.5 40.5 0 00-3.4-2.7c-17-12-51.7-23.3-51.7-23.3z" class="cls-2"/>
  <path id="path26" fill="#fff" stroke="none" d="M316.5 274v4.7s29.2 12.3 34.5 16.6a38.1 38.1 0 003.4 2.5q3.3-4 6.1-8.4l-2.5-1c-5-2-41.5-14.4-41.5-14.4z" class="cls-2"/>
  <path id="path28" fill="#fff" stroke="none" d="M352.6 277.3l12.6 4.5a127 127 0 003.4-6.5l-4-1.6z" class="cls-2"/>
  <path id="path30" fill="#fff" stroke="none" d="M331 271l9.7 2.7s22.2-6.6 32.4-8.5l1.6-4.5-2.7.3s-36 7.7-41 10z" class="cls-2"/>
  <path id="path32" fill="#fff" stroke="none" d="M316.5 264.3v5s42.2-12.8 59.8-13.3l.7-2.4h-.3c-13 2-15.5 1-60.2 10.7z" class="cls-2"/>
  <path id="path34" fill="#fff" stroke="none" d="M374.7 245.8a2 2 0 00-4 0 13 13 0 01-1.8-.1 3 3 0 10-5.1-2.5 10.7 10.7 0 00-4 0 3.4 3.4 0 10-6.7-.2 7.4 7.4 0 00-2.1 0 5 5 0 00-.7 0 4.5 4.5 0 00-2.7.8l-1.8.8a4.6 4.6 0 00-9 0 4.5 4.5 0 00-1-.3 4.5 4.5 0 00.4-1.6 4.6 4.6 0 00-9-.9 9 9 0 00-10.7 8.6v6.8s34.4-7.5 55.3-9.6l2-.1 4.7-.3s.2-1.4-3.8-1.4z" class="cls-2"/>
  <path id="path36" fill="#fff" stroke="none" d="M197 288.4l.4-4.7a10.7 10.7 0 0018.6-7.2 10.5 10.5 0 00-.9-4.2 10.8 10.8 0 006.3-6.5l44.3 6.7h46V228h8.1L291 207.2l-63.1.1.1-2.6a32.7 32.7 0 10-46.4 29.6 10.7 10.7 0 00-7.2 10.2 10.5 10.5 0 00.4 3 14.7 14.7 0 00-1.6-.1 13.8 13.8 0 00-3 27.3 12.6 12.6 0 0012.3 9.8h1l8.2 6.9-1.4 10.8.7 1.2a269.4 269.4 0 00-22.7-16.4s33.8 35 46 55.5a129 129 0 0015.2 3.6l-3-5.3a146.9 146.9 0 00-30.9-33.6l1.4-17.6c9.6 9.9 38 40 48.6 58.3l6 .1c2.8 0 5.5 0 8.2-.3l-2.5-4c-16-25.5-49.6-48.5-60.2-55.3zm21.3-75.4h63l-15.6 9.5-59.5-1zm-19.1 24v-10l19.6.3 46.9.8V267l-5.9-1-.1-21.4-25.7-.6-.3 18.1-11.9-1.8a10.7 10.7 0 00-8.8-8.5 10.6 10.6 0 001-4.5 10.7 10.7 0 00-10.7-10.7 10.5 10.5 0 00-4 .9zM172 264.7a7.6 7.6 0 001.8 4.9 5.7 5.7 0 01-.6 0 8.3 8.3 0 110-16.7 8.4 8.4 0 011.6.2 5.6 5.6 0 01-.1-1 5.7 5.7 0 015-5.6 5.1 5.1 0 01-.3-1.8 5.3 5.3 0 0110.6 0v.7h.2a8.7 8.7 0 018.7 8.7v.7a5.3 5.3 0 11-1.1 3.6 8.7 8.7 0 01-15.5-1 5.6 5.6 0 01-1.8.3 5.7 5.7 0 01-2.4-.5 7.6 7.6 0 00-6.1 7.5zm10.5 13.9a6.7 6.7 0 116.7-6.7 6.7 6.7 0 01-6.7 6.7zm10.3 6.2s-3.3.4-4.2-1.7a12.7 12.7 0 004.6-4.4zm2.3-11.7a11.8 11.8 0 00.1-1.2 12.6 12.6 0 00-.8-4.3 10.5 10.5 0 003-.5 11 11 0 00.6 1.6 10.7 10.7 0 00-2.9 4.4z" class="cls-2"/>
  <path id="path38" fill="#fff" stroke="none" d="M138 306.3l-10.8 6 6.3 11.3 10.8-5.9 3.4 6.2-28.2 15.4-3.4-6.2 12.2-6.6-6.3-11.4-12.2 6.6-3.4-6.2 28.2-15.4z" class="cls-2"/>
  <path id="path40" fill="#fff" stroke="none" d="M159.7 337.7L143.6 368l-4.9-5.5 3.8-6.5-8-9-7 2.8-4.7-5.3 32.2-12.2zM145.2 351l6.2-10.8-11.7 4.6z" class="cls-2"/>
  <path id="path42" fill="#fff" stroke="none" d="M168.7 383.7q-4.8.4-10-3.4-5.2-3.7-6.3-8.4-1-4.7 2.8-10l11.7-16.2 5.7 4.1L161 366a14.7 14.7 0 00-1.3 2.2 5.3 5.3 0 00-.6 2.4 5.1 5.1 0 00.7 2.4 8 8 0 002.5 2.5q3 2.2 5.2 1.7c1.4-.3 2.9-1.5 4.3-3.4l11.7-16.2 5.7 4.1-11.7 16.3q-3.8 5.2-8.7 5.7z" class="cls-2"/>
  <path id="path44" fill="#fff" stroke="none" d="M186.5 367l2.4-5.4 24.1 10.6-2.4 5.4-8.8-3.8-10.6 24-6.4-2.9 10.5-24z" class="cls-2"/>
  <path id="path46" fill="#fff" stroke="none" d="M236.5 377.3l-1.3 5.8-16.5-3.7-1.5 6.7 15.2 3.4-1.2 5.4-15.2-3.4-1.7 7.7 16.9 3.7-1.3 5.8-23.8-5.3 7-31.3z" class="cls-2"/>
  <path id="path48" fill="#fff" stroke="none" d="M257.3 409.6l-12.4-31.4 7.2-.4 8.6 22 5.9-23 7.3-.4-8.7 32.7z" class="cls-2"/>
  <path id="path50" fill="#fff" stroke="none" d="M286.5 372.7l19.6 28.2-7 1.8-4.2-6.3-11.6 3-.7 7.5-6.9 1.8 3.8-34.2zm5.3 19l-6.8-10.4-1.2 12.4z" class="cls-2"/>
  <path id="path52" fill="#fff" stroke="none" d="M303.5 366.4L315 390l14.1-6.8 2.6 5.3-20.5 10-14-29z" class="cls-2"/>
  <path id="path54" fill="#fff" stroke="none" d="M337.1 345l3.6 4.8-13.6 10.1 4.1 5.5 12.5-9.3 3.3 4.4-12.5 9.3 4.7 6.3 13.9-10.4 3.5 4.8-19.5 14.6-19.2-25.7z" class="cls-2"/>
  <path id="path56" fill="#fff" stroke="none" d="M376 345.7q0 4.8-4.2 9.7-4.2 4.9-9 5.6-4.7.6-9.7-3.7l-15.1-13 4.6-5.4 15.1 13.1a14.6 14.6 0 002.1 1.5 5.3 5.3 0 002.3.7 5.2 5.2 0 002.5-.4 8 8 0 002.7-2.3c1.7-1.8 2.4-3.5 2.2-5-.2-1.5-1.3-3-3-4.5l-15.2-13.1 4.6-5.4 15.1 13.1q5 4.3 5 9z" class="cls-2"/>
  <path id="path58" fill="#fff" stroke="none" d="M365.1 306.5a10.2 10.2 0 012.4-3.1 8.8 8.8 0 013.1-1.8 8.2 8.2 0 013.4-.3 9 9 0 013.3 1 9.6 9.6 0 013.8 3.3 7.4 7.4 0 011 5 5.4 5.4 0 012-1.5 6.3 6.3 0 012.3-.4 8.3 8.3 0 012.3.3 19.1 19.1 0 012.3.9l1.7.7 2 .9a14 14 0 002 .6 4.7 4.7 0 001.7.1l-3.3 6.2a12.7 12.7 0 01-3.5-1l-3.8-1.5a6.4 6.4 0 00-4-.4 5.3 5.3 0 00-2.8 2.8l-3.3 6.3 11.1 5.8-3.3 6.3-28.5-14.9zm11.7 9a5.3 5.3 0 00.7-3.7 4.4 4.4 0 00-2.5-2.8 4.3 4.3 0 00-3.6-.5 5.5 5.5 0 00-2.6 2.7l-3.6 6.9 8 4.2z" class="cls-2"/>
  <path id="path60" fill="#fff" stroke="none" d="M93.2 307.7l-5.7 1.6-4.4-16.4-6.7 1.8 4 15-5.2 1.4-4-15-7.7 2.1 4.5 16.7-5.7 1.6-6.4-23.6 31-8.4z" class="cls-2"/>
  <path id="path62" fill="#fff" stroke="none" d="M97.7 318.2l-13.6 21.4 19.4-9.3 2.9 6-29 14-3.1-6.5L88 322.5v-.1l-19.4 9.3-2.9-6 29-13.9z" class="cls-2"/>
  <path id="path64" fill="#fff" stroke="none" d="M87.4 365.3l20-27.2 4.2 5.9-14 19 22.5-7.3 4.3 6-32.3 10z" class="cls-2"/>
  <path id="path66" fill="#fff" stroke="none" d="M131.5 368.4l-23.5 22-4.8-5.3 23.5-21.8z" class="cls-2"/>
  <path id="path68" fill="#fff" stroke="none" d="M148.8 384a10.4 10.4 0 012.6 3 8.8 8.8 0 011 3.4 8.2 8.2 0 01-.3 3.3 8.8 8.8 0 01-1.6 3.1 9.6 9.6 0 01-4 3 7.4 7.4 0 01-5 0 5.5 5.5 0 011 2.3 6 6 0 010 2.2 8.4 8.4 0 01-.9 2.3 20.3 20.3 0 01-1.3 2l-1 1.5a33 33 0 00-1.3 1.8 13.9 13.9 0 00-1 1.8 4.7 4.7 0 00-.4 1.7L131 411a12.7 12.7 0 011.8-3.2 54 54 0 002.2-3.4 6.4 6.4 0 001.2-3.8 5.3 5.3 0 00-2.3-3.4l-5.4-4.5-8 9.8-5.4-4.5 20.3-24.9zm-11.2 9.7a5.4 5.4 0 003.6 1.4 4.5 4.5 0 003.1-2 4.3 4.3 0 001.2-3.3 5.4 5.4 0 00-2.1-3.1l-6-5-5.8 7z" class="cls-2"/>
  <path id="path70" fill="#fff" stroke="none" d="M155.3 401a16 16 0 015.3-3.3 14.2 14.2 0 016-.8 17.6 17.6 0 0111.8 6.3 14.3 14.3 0 012.6 5.5 16.1 16.1 0 01.2 6.2 20.2 20.2 0 01-2.2 6.4 19.3 19.3 0 01-4 5.3 15.6 15.6 0 01-5.2 3.2 14.5 14.5 0 01-6 .7 17.8 17.8 0 01-11.8-6.3 14.3 14.3 0 01-2.7-5.5 15.7 15.7 0 01-.3-6 19.5 19.5 0 012.2-6.4 19.8 19.8 0 014-5.3zm.7 12.4a10.6 10.6 0 00-.3 3.8 7.6 7.6 0 001.2 3.4 9.3 9.3 0 007.1 3.8 7.5 7.5 0 003.6-.9 10.5 10.5 0 003-2.3 16.2 16.2 0 002.2-3.2 17 17 0 001.5-3.9 10.7 10.7 0 00.4-3.8 7.6 7.6 0 00-1.3-3.5 9.3 9.3 0 00-7.1-3.8 7.6 7.6 0 00-3.5 1 10.6 10.6 0 00-3 2.3 17.6 17.6 0 00-2.4 3.4 16 16 0 00-1.4 3.7z" class="cls-2"/>
  <path id="path72" fill="#fff" stroke="none" d="M197 410.2l6.6 24.5h.1l6.3-20.6 6.3 2-9.3 30.7-6.8-2-6.5-24.4h-.1l-6.2 20.6-6.4-2 9.3-30.8z" class="cls-2"/>
  <path id="path74" fill="#fff" stroke="none" d="M228.5 417.8l11.2 22.7 2.2-21.4 6.6.6-3.2 32-7-.7-11.2-22.7h-.1l-2.1 21.4-6.6-.7 3.2-32z" class="cls-2"/>
  <path id="path76" fill="#fff" stroke="none" d="M277.9 417.6l.5 6-17 1.3.6 6.9 15.5-1.3.5 5.5-15.5 1.3.6 7.8 17.3-1.4.5 6-24.3 2-2.7-32z" class="cls-2"/>
  <path id="path78" fill="#fff" stroke="none" d="M291.6 414.6l13.4 19.1.7-23.2 9.5-2.8 9 30.9-6.3 1.8-6.4-21.8-1.3 24-5.2 1.6-13.9-19.5 6.2 21.7-6.3 1.8-9-30.8z" class="cls-2"/>
  <path id="path80" fill="#fff" stroke="none" d="M341 394l2.8 5.3-15 7.9 3.2 6 13.8-7.2 2.6 4.8-13.8 7.3 3.7 7 15.3-8.1 2.8 5.3-21.6 11.4-15-28.4z" class="cls-2"/>
  <path id="path82" fill="#fff" stroke="none" d="M350.3 387.3l23.8 8.6h.1l-13.3-17 5.2-4L386 400l-5.6 4.3-23.8-8.6 13.3 17-5.2 4-19.9-25.2z" class="cls-2"/>
  <path id="path84" fill="#fff" stroke="none" d="M372.6 376.7l-4.4-4 17.5-19.6 4.4 4-6.4 7.1 19.6 17.4-4.7 5.3-19.6-17.4z" class="cls-2"/>
  <path id="path86" fill="#fff" stroke="none" d="M394 340.3l33.4 7.5-4 6.2-7.3-2-6.6 10.1 4.6 6-3.9 6-20.2-27.8zm16.6 10.4l-12-3 7.5 10z" class="cls-2"/>
  <path id="path88" fill="#fff" stroke="none" d="M404 321.6l24 10.5 6.3-14.4 5.4 2.4-9 20.8-29.5-12.8z" class="cls-2"/>
  <path id="path90" fill="#fff" stroke="none" d="M417.2 280.7l5.8 1.5-4.2 16.4 6.7 1.7 3.8-15.1 5.3 1.3-3.8 15.1 7.6 2 4.3-16.8 5.7 1.4-6 23.7-31.1-7.9z" class="cls-2"/>
  <path id="path92" fill="#fff" stroke="none" d="M73.5 251.7a8.3 8.3 0 11-8.3-8.4 8.3 8.3 0 018.3 8.4z" class="cls-2"/>
  <path id="path94" fill="#fff" stroke="none" d="M76 222.4a8.3 8.3 0 11-6.8-9.6 8.3 8.3 0 016.8 9.6z" class="cls-2"/>
  <path id="path96" fill="#fff" stroke="none" d="M83.2 193.9a8.3 8.3 0 11-5.2-10.6 8.3 8.3 0 015.2 10.6z" class="cls-2"/>
  <path id="path98" fill="#fff" stroke="none" d="M95 167a8.3 8.3 0 11-3.4-11.3A8.3 8.3 0 0195 167z" class="cls-2"/>
  <path id="path100" fill="#fff" stroke="none" d="M111 142.4a8.3 8.3 0 11-1.5-11.7 8.3 8.3 0 011.5 11.7z" class="cls-2"/>
  <path id="path102" fill="#fff" stroke="none" d="M130.9 120.7a8.3 8.3 0 11.5-11.7 8.3 8.3 0 01-.5 11.7z" class="cls-2"/>
  <path id="path104" fill="#fff" stroke="none" d="M154 102.7a8.3 8.3 0 112.5-11.6 8.3 8.3 0 01-2.4 11.6z" class="cls-2"/>
  <path id="path106" fill="#fff" stroke="none" d="M179.9 88.7a8.3 8.3 0 114.3-11 8.3 8.3 0 01-4.3 11z" class="cls-2"/>
  <path id="path108" fill="#fff" stroke="none" d="M207.7 79a8.3 8.3 0 116-10 8.3 8.3 0 01-6 10z" class="cls-2"/>
  <path id="path110" fill="#fff" stroke="none" d="M236.6 74.2a8.3 8.3 0 117.6-9 8.3 8.3 0 01-7.6 9z" class="cls-2"/>
  <path id="path112" fill="#fff" stroke="none" d="M266 74.1a8.3 8.3 0 119-7.6 8.3 8.3 0 01-9 7.6z" class="cls-2"/>
  <path id="path114" fill="#fff" stroke="none" d="M295 78.9a8.3 8.3 0 1110.1-6 8.3 8.3 0 01-10.1 6z" class="cls-2"/>
  <path id="path116" fill="#fff" stroke="none" d="M322.8 88.4a8.3 8.3 0 1111-4.3 8.3 8.3 0 01-11 4.3z" class="cls-2"/>
  <path id="path118" fill="#fff" stroke="none" d="M348.7 102.3a8.3 8.3 0 1111.5-2.5 8.3 8.3 0 01-11.5 2.5z" class="cls-2"/>
  <path id="path120" fill="#fff" stroke="none" d="M372 120.3a8.3 8.3 0 1111.8-.5 8.3 8.3 0 01-11.8.5z" class="cls-2"/>
  <path id="path122" fill="#fff" stroke="none" d="M392 141.8a8.3 8.3 0 1111.6 1.5 8.3 8.3 0 01-11.7-1.5z" class="cls-2"/>
  <path id="path124" fill="#fff" stroke="none" d="M408 166.4a8.3 8.3 0 1111.4 3.3 8.3 8.3 0 01-11.3-3.3z" class="cls-2"/>
  <path id="path126" fill="#fff" stroke="none" d="M420 193.3a8.3 8.3 0 1110.6 5.1 8.3 8.3 0 01-10.6-5.1z" class="cls-2"/>
  <path id="path128" fill="#fff" stroke="none" d="M427.3 221.7a8.3 8.3 0 119.6 6.8 8.3 8.3 0 01-9.6-6.8z" class="cls-2"/>
  <path id="path130" fill="#fff" stroke="none" d="M429.8 251a8.3 8.3 0 118.4 8.3 8.3 8.3 0 01-8.4-8.3z" class="cls-2"/>
  <path id="path132" fill="#fff" stroke="none" d="M195.3 163.8a41 41 0 0110.8 1.5 74 74 0 01-11-34.1c0 16-9.5 32-10.7 34l.1.1a41 41 0 0110.8-1.5z" class="cls-2"/>
  <path id="path134" fill="#fff" stroke="none" d="M184.3 165.4l.1-.2a174.1 174.1 0 01-23.7-36.8c8 17.7 11.3 37.6 12 42.3a40.6 40.6 0 0111.6-5.3z" class="cls-2"/>
  <path id="path136" fill="#fff" stroke="none" d="M184.3 165.4l.2-.1v-.1l-.2.2z" class="cls-2"/>
  <path id="path138" fill="#fff" stroke="none" d="M171.4 171.6a74.1 74.1 0 01-33.5-12.8c12.5 10 19 27.5 19.8 29.6h.2a41 41 0 0113.5-16.8z" class="cls-2"/>
  <path id="path140" fill="#fff" stroke="none" d="M157.7 188.4c-5 .1-25 .2-43.5-4.5a174.6 174.6 0 0140.5 17.1 40.5 40.5 0 013-12.3 1 1 0 010-.3z" class="cls-2"/>
  <path id="path142" fill="#fff" stroke="none" d="M157.9 188.4h-.2a1 1 0 000 .2z" class="cls-2"/>
  <path id="path144" fill="#fff" stroke="none" d="M154.6 202.6c-1 1-15 14.5-31 18a75 75 0 0135.7 3.3 40.7 40.7 0 01-4.8-19.2v-2z" class="cls-2"/>
  <path id="path146" fill="#fff" stroke="none" d="M277.7 189.5c-19 3.5-39.2 1.9-43.9 1.5a40.8 40.8 0 012.4 12.8c4.2-2.2 22.5-10.8 41.5-14.3z" class="cls-2"/>
  <path id="path148" fill="#fff" stroke="none" d="M233.2 189.4c.5-1.3 7.5-19.4 20.6-29.3a74.3 74.3 0 01-33.6 12v.1a41 41 0 0113 17.2z" class="cls-2"/>
  <path id="path150" fill="#fff" stroke="none" d="M220 172h.2c1.2-4.9 5.9-24.2 15-41a177 177 0 01-26.4 35.1 41 41 0 0111.2 6z" class="cls-2"/>
  <path id="path152" fill="#fff" stroke="none" d="M220 172.1l.2.2v-.2h-.3z" class="cls-2"/>
  <path id="path154" fill="#fff" stroke="none" d="M184.3 165.4h.3v-.1z" class="cls-2"/>
  <path id="path156" fill="#fff" stroke="none" d="M157.8 188.6l.2-.2h-.1z" class="cls-2"/>
  <path id="path158" fill="#fff" stroke="none" d="M220 172.1l.1.2z" class="cls-2"/>
</svg>
